{
  "asset": {
    "generator": "glTF-Transform v4.1.1",
    "version": "2.0"
  },
  "accessors": [
    {
      "type": "SCALAR",
      "componentType": 5123,
      "count": 48,
      "bufferView": 0,
      "byteOffset": 0
    },
    {
      "type": "VEC3",
      "componentType": 5126,
      "count": 32,
      "max": [
        0.125,
        0.375,
        0.125
      ],
      "min": [
        -0.125,
        -0.1875,
        -0.125
      ],
      "bufferView": 1,
      "byteOffset": 0
    },
    {
      "type": "VEC3",
      "componentType": 5126,
      "count": 32,
      "bufferView": 1,
      "byteOffset": 12
    },
    {
      "type": "VEC2",
      "componentType": 5126,
      "count": 32,
      "bufferView": 1,
      "byteOffset": 24
    },
    {
      "type": "VEC3",
      "componentType": 5126,
      "count": 32,
      "max": [
        0.0625,
        0.25,
        0.0625
      ],
      "min": [
        -0.0625,
        -0.0625,
        -0.0625
      ],
      "bufferView": 2,
      "byteOffset": 0
    },
    {
      "type": "VEC3",
      "componentType": 5126,
      "count": 32,
      "bufferView": 2,
      "byteOffset": 12
    }
  ],
  "bufferViews": [
    {
      "buffer": 0,
      "byteOffset": 0,
      "byteLength": 96,
      "target": 34963
    },
    {
      "buffer": 0,
      "byteOffset": 96,
      "byteLength": 1024,
      "byteStride": 32,
      "target": 34962
    },
    {
      "buffer": 0,
      "byteOffset": 1120,
      "byteLength": 768,
      "byteStride": 24,
      "target": 34962
    }
  ],
  "samplers": [
    {
      "magFilter": 9728,
      "minFilter": 9728,
      "wrapS": 33071,
      "wrapT": 33071
    }
  ],
  "textures": [
    {
      "source": 0,
      "sampler": 0
    }
  ],
  "images": [
    {
      "mimeType": "image/png",
      "uri": "baseColor.png"
    }
  ],
  "buffers": [
    {
      "uri": "Purple-Mushroom-Multiple-named-nodes.bin",
      "byteLength": 1888
    }
  ],
  "materials": [
    {
      "alphaMode": "MASK",
      "alphaCutoff": 0.05,
      "doubleSided": true,
      "pbrMetallicRoughness": {
        "metallicFactor": 0,
        "baseColorTexture": {
          "index": 0
        }
      }
    }
  ],
  "meshes": [
    {
      "primitives": [
        {
          "attributes": {
            "POSITION": 1,
            "NORMAL": 2,
            "TEXCOORD_0": 3
          },
          "mode": 4,
          "material": 0,
          "indices": 0
        }
      ]
    },
    {
      "primitives": [
        {
          "attributes": {
            "POSITION": 4,
            "NORMAL": 5,
            "TEXCOORD_0": 3
          },
          "mode": 4,
          "material": 0,
          "indices": 0
        }
      ]
    }
  ],
  "nodes": [
    {
      "name": "cube",
      "translation": [
        0,
        0.1875,
        0
      ],
      "mesh": 0
    },
    {
      "name": "cube",
      "translation": [
        -0.1875,
        0.0625,
        -0.3125
      ],
      "rotation": [
        0,
        -0.30070579950427334,
        0,
        0.9537169507482268
      ],
      "mesh": 1
    },
    {
      "name": "cube",
      "translation": [
        0.25,
        0.0625,
        -0.25
      ],
      "rotation": [
        -0.027673306612903077,
        0,
        0,
        0.9996170207139874
      ],
      "mesh": 1
    },
    {
      "name": "cube",
      "translation": [
        0.25,
        0.0625,
        0.25
      ],
      "rotation": [
        -0.02158198242327487,
        -0.6256837564595835,
        0.017321372161962494,
        0.7795858034903747
      ],
      "mesh": 1
    }
  ],
  "scenes": [
    {
      "name": "blockbench_export",
      "nodes": [
        0,
        1,
        2,
        3
      ]
    }
  ],
  "scene": 0
}