{"asset":{"version":"2.0","generator":"Blockbench 4.12.4 glTF exporter"},"scenes":[{"nodes":[5],"name":"blockbench_export"}],"scene":0,"nodes":[{"translation":[0,0.1875,0],"name":"cube","mesh":0},{"rotation":[0,-0.30070579950427334,0,0.9537169507482268],"translation":[-0.1875,0.0625,-0.3125],"name":"cube","mesh":1},{"rotation":[-0.027673306612903077,0,0,0.9996170207139874],"translation":[0.25,0.0625,-0.25],"name":"cube","mesh":2},{"rotation":[-0.021581982423274873,-0.6256837564595834,0.017321372161962494,0.7795858034903747],"translation":[0.25,0.0625,0.25],"name":"cube","mesh":3},{"name":"Purple-Mushroom2","children":[0,1,2,3]},{"children":[4]}],"bufferViews":[{"buffer":0,"byteOffset":0,"byteLength":384,"target":34962,"byteStride":12},{"buffer":0,"byteOffset":384,"byteLength":384,"target":34962,"byteStride":12},{"buffer":0,"byteOffset":768,"byteLength":256,"target":34962,"byteStride":8},{"buffer":0,"byteOffset":1024,"byteLength":96,"target":34963},{"buffer":0,"byteOffset":1120,"byteLength":384,"target":34962,"byteStride":12},{"buffer":0,"byteOffset":1504,"byteLength":384,"target":34962,"byteStride":12},{"buffer":0,"byteOffset":1888,"byteLength":256,"target":34962,"byteStride":8},{"buffer":0,"byteOffset":2144,"byteLength":96,"target":34963},{"buffer":0,"byteOffset":2240,"byteLength":384,"target":34962,"byteStride":12},{"buffer":0,"byteOffset":2624,"byteLength":384,"target":34962,"byteStride":12},{"buffer":0,"byteOffset":3008,"byteLength":256,"target":34962,"byteStride":8},{"buffer":0,"byteOffset":3264,"byteLength":96,"target":34963},{"buffer":0,"byteOffset":3360,"byteLength":384,"target":34962,"byteStride":12},{"buffer":0,"byteOffset":3744,"byteLength":384,"target":34962,"byteStride":12},{"buffer":0,"byteOffset":4128,"byteLength":256,"target":34962,"byteStride":8},{"buffer":0,"byteOffset":4384,"byteLength":96,"target":34963}],"buffers":[{"byteLength":4480,"uri":"data:application/octet-stream;base64,"}],"accessors":[{"bufferView":0,"componentType":5126,"count":32,"max":[0.125,0.375,0.125],"min":[-0.125,-0.1875,-0.125],"type":"VEC3"},{"bufferView":1,"componentType":5126,"count":32,"max":[1,1,1],"min":[-1,-1,-1],"type":"VEC3"},{"bufferView":2,"componentType":5126,"count":32,"max":[0.59375,0.40625],"min":[0,0],"type":"VEC2"},{"bufferView":3,"componentType":5123,"count":48,"max":[31],"min":[0],"type":"SCALAR"},{"bufferView":4,"componentType":5126,"count":32,"max":[0.0625,0.25,0.0625],"min":[-0.0625,-0.0625,-0.0625],"type":"VEC3"},{"bufferView":5,"componentType":5126,"count":32,"max":[1,1,1],"min":[-1,-1,-1],"type":"VEC3"},{"bufferView":6,"componentType":5126,"count":32,"max":[0.59375,0.40625],"min":[0,0],"type":"VEC2"},{"bufferView":7,"componentType":5123,"count":48,"max":[31],"min":[0],"type":"SCALAR"},{"bufferView":8,"componentType":5126,"count":32,"max":[0.0625,0.25,0.0625],"min":[-0.0625,-0.0625,-0.0625],"type":"VEC3"},{"bufferView":9,"componentType":5126,"count":32,"max":[1,1,1],"min":[-1,-1,-1],"type":"VEC3"},{"bufferView":10,"componentType":5126,"count":32,"max":[0.59375,0.40625],"min":[0,0],"type":"VEC2"},{"bufferView":11,"componentType":5123,"count":48,"max":[31],"min":[0],"type":"SCALAR"},{"bufferView":12,"componentType":5126,"count":32,"max":[0.0625,0.25,0.0625],"min":[-0.0625,-0.0625,-0.0625],"type":"VEC3"},{"bufferView":13,"componentType":5126,"count":32,"max":[1,1,1],"min":[-1,-1,-1],"type":"VEC3"},{"bufferView":14,"componentType":5126,"count":32,"max":[0.59375,0.40625],"min":[0,0],"type":"VEC2"},{"bufferView":15,"componentType":5123,"count":48,"max":[31],"min":[0],"type":"SCALAR"}],"materials":[{"pbrMetallicRoughness":{"metallicFactor":0,"roughnessFactor":1,"baseColorTexture":{"index":0}},"alphaMode":"MASK","alphaCutoff":0.05,"doubleSided":true}],"textures":[{"sampler":0,"source":0,"name":"Brown-Mushroom.png"}],"samplers":[{"magFilter":9728,"minFilter":9728,"wrapS":33071,"wrapT":33071}],"images":[{"mimeType":"image/png","uri":"data:image/png;base64,"}],"meshes":[{"primitives":[{"mode":4,"attributes":{"POSITION":0,"NORMAL":1,"TEXCOORD_0":2},"indices":3,"material":0}]},{"primitives":[{"mode":4,"attributes":{"POSITION":4,"NORMAL":5,"TEXCOORD_0":6},"indices":7,"material":0}]},{"primitives":[{"mode":4,"attributes":{"POSITION":8,"NORMAL":9,"TEXCOORD_0":10},"indices":11,"material":0}]},{"primitives":[{"mode":4,"attributes":{"POSITION":12,"NORMAL":13,"TEXCOORD_0":14},"indices":15,"material":0}]}]}