{
  "asset": {
    "generator": "glTF-Transform v4.1.1",
    "version": "2.0"
  },
  "accessors": [
    {
      "type": "SCALAR",
      "componentType": 5123,
      "count": 36,
      "bufferView": 0,
      "byteOffset": 0
    },
    {
      "type": "SCALAR",
      "componentType": 5123,
      "count": 6,
      "bufferView": 0,
      "byteOffset": 72
    },
    {
      "type": "VEC3",
      "componentType": 5126,
      "count": 24,
      "max": [
        0.375,
        -1.1875,
        0.375
      ],
      "min": [
        -0.375,
        -2.1875,
        -0.375
      ],
      "bufferView": 1,
      "byteOffset": 0
    },
    {
      "type": "VEC3",
      "componentType": 5126,
      "count": 24,
      "bufferView": 1,
      "byteOffset": 12
    },
    {
      "type": "VEC2",
      "componentType": 5126,
      "count": 24,
      "bufferView": 1,
      "byteOffset": 24
    },
    {
      "type": "VEC3",
      "componentType": 5126,
      "count": 4,
      "max": [
        -2.0625,
        0.375,
        0.4375
      ],
      "min": [
        -2.125,
        0.375,
        0.375
      ],
      "bufferView": 2,
      "byteOffset": 0
    },
    {
      "type": "VEC3",
      "componentType": 5126,
      "count": 4,
      "bufferView": 2,
      "byteOffset": 12
    },
    {
      "type": "VEC2",
      "componentType": 5126,
      "count": 4,
      "bufferView": 2,
      "byteOffset": 24
    },
    {
      "type": "VEC3",
      "componentType": 5126,
      "count": 4,
      "max": [
        -2.0625,
        0.375,
        -0.375
      ],
      "min": [
        -2.125,
        0.375,
        -0.4375
      ],
      "bufferView": 3,
      "byteOffset": 0
    },
    {
      "type": "VEC3",
      "componentType": 5126,
      "count": 4,
      "max": [
        -1.875,
        -0.375,
        -0.375
      ],
      "min": [
        -1.9375,
        -0.375,
        -0.4375
      ],
      "bufferView": 4,
      "byteOffset": 0
    },
    {
      "type": "VEC3",
      "componentType": 5126,
      "count": 4,
      "max": [
        -1.1875,
        0.375,
        -0.375
      ],
      "min": [
        -1.25,
        0.375,
        -0.4375
      ],
      "bufferView": 5,
      "byteOffset": 0
    },
    {
      "type": "VEC3",
      "componentType": 5126,
      "count": 4,
      "max": [
        -1.1875,
        0.375,
        0.4375
      ],
      "min": [
        -1.25,
        0.375,
        0.375
      ],
      "bufferView": 6,
      "byteOffset": 0
    },
    {
      "type": "VEC3",
      "componentType": 5126,
      "count": 4,
      "max": [
        -1.875,
        -0.375,
        0.4375
      ],
      "min": [
        -1.9375,
        -0.375,
        0.375
      ],
      "bufferView": 7,
      "byteOffset": 0
    }
  ],
  "bufferViews": [
    {
      "buffer": 0,
      "byteOffset": 0,
      "byteLength": 84,
      "target": 34963
    },
    {
      "buffer": 0,
      "byteOffset": 84,
      "byteLength": 768,
      "byteStride": 32,
      "target": 34962
    },
    {
      "buffer": 0,
      "byteOffset": 852,
      "byteLength": 128,
      "byteStride": 32,
      "target": 34962
    },
    {
      "buffer": 0,
      "byteOffset": 980,
      "byteLength": 48,
      "byteStride": 12,
      "target": 34962
    },
    {
      "buffer": 0,
      "byteOffset": 1028,
      "byteLength": 48,
      "byteStride": 12,
      "target": 34962
    },
    {
      "buffer": 0,
      "byteOffset": 1076,
      "byteLength": 48,
      "byteStride": 12,
      "target": 34962
    },
    {
      "buffer": 0,
      "byteOffset": 1124,
      "byteLength": 48,
      "byteStride": 12,
      "target": 34962
    },
    {
      "buffer": 0,
      "byteOffset": 1172,
      "byteLength": 48,
      "byteStride": 12,
      "target": 34962
    }
  ],
  "samplers": [
    {
      "magFilter": 9728,
      "minFilter": 9728,
      "wrapS": 33071,
      "wrapT": 33071
    }
  ],
  "textures": [
    {
      "source": 0,
      "sampler": 0
    }
  ],
  "images": [
    {
      "mimeType": "image/png",
      "uri": "baseColor.png"
    }
  ],
  "buffers": [
    {
      "uri": "environment-cactus-3-named-nodes.bin",
      "byteLength": 1220
    }
  ],
  "materials": [
    {
      "alphaMode": "MASK",
      "alphaCutoff": 0.05,
      "doubleSided": true,
      "pbrMetallicRoughness": {
        "metallicFactor": 0,
        "baseColorTexture": {
          "index": 0
        }
      }
    }
  ],
  "meshes": [
    {
      "primitives": [
        {
          "attributes": {
            "POSITION": 2,
            "NORMAL": 3,
            "TEXCOORD_0": 4
          },
          "mode": 4,
          "material": 0,
          "indices": 0
        }
      ]
    },
    {
      "primitives": [
        {
          "attributes": {
            "POSITION": 5,
            "NORMAL": 6,
            "TEXCOORD_0": 7
          },
          "mode": 4,
          "material": 0,
          "indices": 1
        }
      ]
    },
    {
      "primitives": [
        {
          "attributes": {
            "POSITION": 8,
            "NORMAL": 6,
            "TEXCOORD_0": 7
          },
          "mode": 4,
          "material": 0,
          "indices": 1
        }
      ]
    },
    {
      "primitives": [
        {
          "attributes": {
            "POSITION": 9,
            "NORMAL": 6,
            "TEXCOORD_0": 7
          },
          "mode": 4,
          "material": 0,
          "indices": 1
        }
      ]
    },
    {
      "primitives": [
        {
          "attributes": {
            "POSITION": 10,
            "NORMAL": 6,
            "TEXCOORD_0": 7
          },
          "mode": 4,
          "material": 0,
          "indices": 1
        }
      ]
    },
    {
      "primitives": [
        {
          "attributes": {
            "POSITION": 11,
            "NORMAL": 6,
            "TEXCOORD_0": 7
          },
          "mode": 4,
          "material": 0,
          "indices": 1
        }
      ]
    },
    {
      "primitives": [
        {
          "attributes": {
            "POSITION": 12,
            "NORMAL": 6,
            "TEXCOORD_0": 7
          },
          "mode": 4,
          "material": 0,
          "indices": 1
        }
      ]
    }
  ],
  "nodes": [
    {
      "name": "cube",
      "translation": [
        0,
        2.1875,
        0
      ],
      "mesh": 0
    },
    {
      "name": "plane",
      "translation": [
        0,
        2.1875,
        0
      ],
      "rotation": [
        0,
        0,
        0.7071067811865475,
        0.7071067811865476
      ],
      "mesh": 1
    },
    {
      "name": "plane",
      "translation": [
        0,
        2.1875,
        0
      ],
      "rotation": [
        0.5,
        0.5,
        0.4999999999999999,
        0.5000000000000001
      ],
      "mesh": 2
    },
    {
      "name": "plane",
      "translation": [
        0,
        2.3125,
        0
      ],
      "rotation": [
        0.5,
        0.5,
        0.4999999999999999,
        0.5000000000000001
      ],
      "mesh": 3
    },
    {
      "name": "plane",
      "translation": [
        0,
        2.1875,
        0
      ],
      "rotation": [
        0.5,
        0.5,
        0.4999999999999999,
        0.5000000000000001
      ],
      "mesh": 4
    },
    {
      "name": "plane",
      "translation": [
        0,
        2.1875,
        0
      ],
      "rotation": [
        0.5,
        0.5,
        0.4999999999999999,
        0.5000000000000001
      ],
      "mesh": 5
    },
    {
      "name": "plane",
      "translation": [
        0,
        2.8125,
        0
      ],
      "rotation": [
        0.5,
        0.5,
        0.4999999999999999,
        0.5000000000000001
      ],
      "mesh": 6
    },
    {
      "name": "plane",
      "translation": [
        0,
        2.1875,
        0
      ],
      "rotation": [
        0.5,
        0.5,
        0.4999999999999999,
        0.5000000000000001
      ],
      "mesh": 1
    },
    {
      "name": "plane",
      "translation": [
        0,
        2.1875,
        0
      ],
      "rotation": [
        0,
        0,
        0.7071067811865475,
        0.7071067811865476
      ],
      "mesh": 6
    },
    {
      "name": "plane",
      "translation": [
        0,
        1.8125,
        0
      ],
      "rotation": [
        0,
        0,
        0.7071067811865475,
        0.7071067811865476
      ],
      "mesh": 5
    },
    {
      "name": "plane",
      "translation": [
        0,
        2.1875,
        0
      ],
      "rotation": [
        0,
        0,
        0.7071067811865475,
        0.7071067811865476
      ],
      "mesh": 4
    },
    {
      "name": "plane",
      "translation": [
        0,
        2.1875,
        0
      ],
      "rotation": [
        0,
        0,
        0.7071067811865475,
        0.7071067811865476
      ],
      "mesh": 3
    },
    {
      "name": "plane",
      "translation": [
        0,
        2.1875,
        0
      ],
      "rotation": [
        0,
        0,
        0.7071067811865475,
        0.7071067811865476
      ],
      "mesh": 2
    }
  ],
  "scenes": [
    {
      "name": "blockbench_export",
      "nodes": [
        0,
        1,
        2,
        3,
        4,
        5,
        6,
        7,
        8,
        9,
        10,
        11,
        12
      ]
    }
  ],
  "scene": 0
}